<svg width="24" height="22" viewBox="0 0 24 22" fill="none" xmlns="http://www.w3.org/2000/svg">
<path d="M22.7206 0.289412C22.3256 -0.0453257 21.7051 -0.0932205 21.0636 0.164149H21.0625C20.3878 0.434676 1.96396 8.33154 1.21394 8.65417C1.07752 8.70154 -0.113867 9.14575 0.00885319 10.1352C0.118406 11.0273 1.07594 11.3968 1.19287 11.4394L5.87679 13.0421C6.18754 14.0758 7.33311 17.8895 7.58645 18.7042C7.74446 19.2121 8.00202 19.8795 8.4534 20.0168C8.84948 20.1695 9.24345 20.03 9.49837 19.83L12.362 17.1758L16.9849 20.7784L17.0949 20.8442C17.4088 20.9832 17.7096 21.0526 17.9966 21.0526C18.2184 21.0526 18.4312 21.0111 18.6345 20.9279C19.3271 20.6437 19.6041 19.9842 19.6331 19.9095L23.0861 1.97415C23.2968 1.01626 23.004 0.528887 22.7206 0.289412ZM10.0077 13.6831L8.42759 17.8937L6.8475 12.6305L18.9615 3.68311L10.0077 13.6831Z" fill="#949494"/>
</svg>
